<?xml version="1.0" encoding="UTF-8" standalone="no"?>
<!DOCTYPE svg PUBLIC "-//W3C//DTD SVG 1.1//EN"
 "http://www.w3.org/Graphics/SVG/1.1/DTD/svg11.dtd">
<!-- Generated by graphviz version 2.40.1 (20161225.0304)
 -->
<!-- Title: dependencies Pages: 1 -->
<svg width="1224pt" height="284pt"
 viewBox="0.00 0.00 1224.00 284.00" xmlns="http://www.w3.org/2000/svg" xmlns:xlink="http://www.w3.org/1999/xlink">
<g id="graph0" class="graph" transform="scale(1 1) rotate(0) translate(4 280)">
<title>dependencies</title>
<polygon fill="#ffffff" stroke="transparent" points="-4,4 -4,-280 1220,-280 1220,4 -4,4"/>
<text text-anchor="start" x="587.0091" y="-42.4" font-family="sans-serif" font-weight="bold" font-size="14.00" fill="#000000">Legend</text>
<polygon fill="#ffffb3" stroke="transparent" points="374,-10 374,-30 394,-30 394,-10 374,-10"/>
<text text-anchor="start" x="397.629" y="-15.4" font-family="sans-serif" font-size="14.00" fill="#000000"> &#160;Declarations</text>
<polygon fill="#8dd3c7" stroke="transparent" points="487,-10 487,-30 507,-30 507,-10 487,-10"/>
<text text-anchor="start" x="510.7251" y="-15.4" font-family="sans-serif" font-size="14.00" fill="#000000"> &#160;Module</text>
<polygon fill="#80b1d3" stroke="transparent" points="573,-10 573,-30 593,-30 593,-10 573,-10"/>
<text text-anchor="start" x="596.7812" y="-15.4" font-family="sans-serif" font-size="14.00" fill="#000000"> &#160;Bootstrap</text>
<polygon fill="#fdb462" stroke="transparent" points="670,-10 670,-30 690,-30 690,-10 670,-10"/>
<text text-anchor="start" x="693.6732" y="-15.4" font-family="sans-serif" font-size="14.00" fill="#000000"> &#160;Providers</text>
<polygon fill="#fb8072" stroke="transparent" points="766,-10 766,-30 786,-30 786,-10 766,-10"/>
<text text-anchor="start" x="789.7258" y="-15.4" font-family="sans-serif" font-size="14.00" fill="#000000"> &#160;Exports</text>
<g id="clust1" class="cluster">
<title>cluster_MatKeyboardModule</title>
<polygon fill="none" stroke="#000000" stroke-dasharray="1,5" points="8,-70 8,-268 1208,-268 1208,-70 8,-70"/>
</g>
<g id="clust2" class="cluster">
<title>cluster_MatKeyboardModule_declarations</title>
<polygon fill="none" stroke="#000000" points="228,-78 228,-130 1200,-130 1200,-78 228,-78"/>
</g>
<g id="clust9" class="cluster">
<title>cluster_MatKeyboardModule_exports</title>
<polygon fill="none" stroke="#000000" points="226,-208 226,-260 1012,-260 1012,-208 226,-208"/>
</g>
<g id="clust11" class="cluster">
<title>cluster_MatKeyboardModule_providers</title>
<polygon fill="none" stroke="#000000" points="16,-78 16,-130 220,-130 220,-78 16,-78"/>
</g>
<!-- MatKeyboardComponent -->
<g id="node1" class="node">
<title>MatKeyboardComponent</title>
<polygon fill="#ffffb3" stroke="#000000" points="1191.5786,-122 1032.4214,-122 1032.4214,-86 1191.5786,-86 1191.5786,-122"/>
<text text-anchor="middle" x="1112" y="-99.8" font-family="Times,serif" font-size="14.00" fill="#000000">MatKeyboardComponent</text>
</g>
<!-- MatKeyboardModule -->
<g id="node6" class="node">
<title>MatKeyboardModule</title>
<polygon fill="#8dd3c7" stroke="#000000" points="682.7963,-187 679.7963,-191 658.7963,-191 655.7963,-187 545.2037,-187 545.2037,-151 682.7963,-151 682.7963,-187"/>
<text text-anchor="middle" x="614" y="-164.8" font-family="Times,serif" font-size="14.00" fill="#000000">MatKeyboardModule</text>
</g>
<!-- MatKeyboardComponent&#45;&gt;MatKeyboardModule -->
<g id="edge1" class="edge">
<title>MatKeyboardComponent&#45;&gt;MatKeyboardModule</title>
<path fill="none" stroke="#000000" d="M1112,-122.1061C1112,-141.3391 1112,-169 1112,-169 1112,-169 692.7219,-169 692.7219,-169"/>
<polygon fill="#000000" stroke="#000000" points="692.7219,-165.5001 682.7219,-169 692.7219,-172.5001 692.7219,-165.5001"/>
</g>
<!-- MatKeyboardContainerComponent -->
<g id="node2" class="node">
<title>MatKeyboardContainerComponent</title>
<polygon fill="#ffffb3" stroke="#000000" points="1014.2864,-122 799.7136,-122 799.7136,-86 1014.2864,-86 1014.2864,-122"/>
<text text-anchor="middle" x="907" y="-99.8" font-family="Times,serif" font-size="14.00" fill="#000000">MatKeyboardContainerComponent</text>
</g>
<!-- MatKeyboardContainerComponent&#45;&gt;MatKeyboardModule -->
<g id="edge2" class="edge">
<title>MatKeyboardContainerComponent&#45;&gt;MatKeyboardModule</title>
<path fill="none" stroke="#000000" d="M811.875,-122.027C811.875,-138.3976 811.875,-160 811.875,-160 811.875,-160 692.6517,-160 692.6517,-160"/>
<polygon fill="#000000" stroke="#000000" points="692.6518,-156.5001 682.6517,-160 692.6517,-163.5001 692.6518,-156.5001"/>
</g>
<!-- MatKeyboardDirective -->
<g id="node3" class="node">
<title>MatKeyboardDirective</title>
<polygon fill="#ffffb3" stroke="#000000" points="781.8291,-122 636.1709,-122 636.1709,-86 781.8291,-86 781.8291,-122"/>
<text text-anchor="middle" x="709" y="-99.8" font-family="Times,serif" font-size="14.00" fill="#000000">MatKeyboardDirective</text>
</g>
<!-- MatKeyboardDirective&#45;&gt;MatKeyboardModule -->
<g id="edge3" class="edge">
<title>MatKeyboardDirective&#45;&gt;MatKeyboardModule</title>
<path fill="none" stroke="#000000" d="M659.3668,-122.1061C659.3668,-122.1061 659.3668,-140.991 659.3668,-140.991"/>
<polygon fill="#000000" stroke="#000000" points="655.8668,-140.9909 659.3668,-150.991 662.8668,-140.991 655.8668,-140.9909"/>
</g>
<!-- MatKeyboardKebabCasePipe -->
<g id="node4" class="node">
<title>MatKeyboardKebabCasePipe</title>
<polygon fill="#ffffb3" stroke="#000000" points="618.3806,-122 435.6194,-122 435.6194,-86 618.3806,-86 618.3806,-122"/>
<text text-anchor="middle" x="527" y="-99.8" font-family="Times,serif" font-size="14.00" fill="#000000">MatKeyboardKebabCasePipe</text>
</g>
<!-- MatKeyboardKebabCasePipe&#45;&gt;MatKeyboardModule -->
<g id="edge4" class="edge">
<title>MatKeyboardKebabCasePipe&#45;&gt;MatKeyboardModule</title>
<path fill="none" stroke="#000000" d="M581.7711,-122.1061C581.7711,-122.1061 581.7711,-140.991 581.7711,-140.991"/>
<polygon fill="#000000" stroke="#000000" points="578.2711,-140.9909 581.7711,-150.991 585.2711,-140.991 578.2711,-140.9909"/>
</g>
<!-- MatKeyboardKeyComponent -->
<g id="node5" class="node">
<title>MatKeyboardKeyComponent</title>
<polygon fill="#ffffb3" stroke="#000000" points="418.4002,-122 235.5998,-122 235.5998,-86 418.4002,-86 418.4002,-122"/>
<text text-anchor="middle" x="327" y="-99.8" font-family="Times,serif" font-size="14.00" fill="#000000">MatKeyboardKeyComponent</text>
</g>
<!-- MatKeyboardKeyComponent&#45;&gt;MatKeyboardModule -->
<g id="edge5" class="edge">
<title>MatKeyboardKeyComponent&#45;&gt;MatKeyboardModule</title>
<path fill="none" stroke="#000000" d="M357.4,-122.027C357.4,-138.3976 357.4,-160 357.4,-160 357.4,-160 535.2359,-160 535.2359,-160"/>
<polygon fill="#000000" stroke="#000000" points="535.2359,-163.5001 545.2359,-160 535.2359,-156.5001 535.2359,-163.5001"/>
</g>
<!-- MatKeyboardComponent  -->
<g id="node7" class="node">
<title>MatKeyboardComponent </title>
<polygon fill="#fb8072" stroke="#000000" points="1004.0791,-252 841.9209,-252 841.9209,-216 1004.0791,-216 1004.0791,-252"/>
<text text-anchor="middle" x="923" y="-229.8" font-family="Times,serif" font-size="14.00" fill="#000000">MatKeyboardComponent </text>
</g>
<!-- MatKeyboardModule&#45;&gt;MatKeyboardComponent  -->
<g id="edge6" class="edge">
<title>MatKeyboardModule&#45;&gt;MatKeyboardComponent </title>
<path fill="none" stroke="#000000" stroke-dasharray="5,2" d="M682.961,-178C774.0304,-178 923,-178 923,-178 923,-178 923,-205.973 923,-205.973"/>
<polygon fill="#000000" stroke="#000000" points="919.5001,-205.973 923,-215.973 926.5001,-205.973 919.5001,-205.973"/>
</g>
<!-- MatKeyboardContainerComponent  -->
<g id="node8" class="node">
<title>MatKeyboardContainerComponent </title>
<polygon fill="#fb8072" stroke="#000000" points="823.7863,-252 606.2137,-252 606.2137,-216 823.7863,-216 823.7863,-252"/>
<text text-anchor="middle" x="715" y="-229.8" font-family="Times,serif" font-size="14.00" fill="#000000">MatKeyboardContainerComponent </text>
</g>
<!-- MatKeyboardModule&#45;&gt;MatKeyboardContainerComponent  -->
<g id="edge7" class="edge">
<title>MatKeyboardModule&#45;&gt;MatKeyboardContainerComponent </title>
<path fill="none" stroke="#000000" stroke-dasharray="5,2" d="M644.3775,-187.1061C644.3775,-187.1061 644.3775,-205.991 644.3775,-205.991"/>
<polygon fill="#000000" stroke="#000000" points="640.8775,-205.9909 644.3775,-215.991 647.8775,-205.991 640.8775,-205.9909"/>
</g>
<!-- MatKeyboardDirective  -->
<g id="node9" class="node">
<title>MatKeyboardDirective </title>
<polygon fill="#fb8072" stroke="#000000" points="587.8294,-252 438.1706,-252 438.1706,-216 587.8294,-216 587.8294,-252"/>
<text text-anchor="middle" x="513" y="-229.8" font-family="Times,serif" font-size="14.00" fill="#000000">MatKeyboardDirective </text>
</g>
<!-- MatKeyboardModule&#45;&gt;MatKeyboardDirective  -->
<g id="edge8" class="edge">
<title>MatKeyboardModule&#45;&gt;MatKeyboardDirective </title>
<path fill="none" stroke="#000000" stroke-dasharray="5,2" d="M566.5083,-187.1061C566.5083,-187.1061 566.5083,-205.991 566.5083,-205.991"/>
<polygon fill="#000000" stroke="#000000" points="563.0083,-205.9909 566.5083,-215.991 570.0083,-205.991 563.0083,-205.9909"/>
</g>
<!-- MatKeyboardKeyComponent  -->
<g id="node10" class="node">
<title>MatKeyboardKeyComponent </title>
<polygon fill="#fb8072" stroke="#000000" points="419.8998,-252 234.1002,-252 234.1002,-216 419.8998,-216 419.8998,-252"/>
<text text-anchor="middle" x="327" y="-229.8" font-family="Times,serif" font-size="14.00" fill="#000000">MatKeyboardKeyComponent </text>
</g>
<!-- MatKeyboardModule&#45;&gt;MatKeyboardKeyComponent  -->
<g id="edge9" class="edge">
<title>MatKeyboardModule&#45;&gt;MatKeyboardKeyComponent </title>
<path fill="none" stroke="#000000" stroke-dasharray="5,2" d="M545.1289,-178C451.7791,-178 296.6,-178 296.6,-178 296.6,-178 296.6,-205.973 296.6,-205.973"/>
<polygon fill="#000000" stroke="#000000" points="293.1001,-205.973 296.6,-215.973 300.1001,-205.973 293.1001,-205.973"/>
</g>
<!-- MatKeyboardService -->
<g id="node11" class="node">
<title>MatKeyboardService</title>
<ellipse fill="#fdb462" stroke="#000000" cx="118" cy="-104" rx="93.7398" ry="18"/>
<text text-anchor="middle" x="118" y="-99.8" font-family="Times,serif" font-size="14.00" fill="#000000">MatKeyboardService</text>
</g>
<!-- MatKeyboardService&#45;&gt;MatKeyboardModule -->
<g id="edge10" class="edge">
<title>MatKeyboardService&#45;&gt;MatKeyboardModule</title>
<path fill="none" stroke="#000000" d="M118,-122.1061C118,-141.3391 118,-169 118,-169 118,-169 535.2939,-169 535.2939,-169"/>
<polygon fill="#000000" stroke="#000000" points="535.2939,-172.5001 545.2939,-169 535.2939,-165.5001 535.2939,-172.5001"/>
</g>
</g>
</svg>
