<?xml version="1.0" encoding="UTF-8" standalone="no"?>
<!DOCTYPE svg PUBLIC "-//W3C//DTD SVG 1.1//EN"
 "http://www.w3.org/Graphics/SVG/1.1/DTD/svg11.dtd">
<!-- Generated by graphviz version 2.40.1 (20161225.0304)
 -->
<!-- Title: dependencies Pages: 1 -->
<svg width="4032pt" height="284pt"
 viewBox="0.00 0.00 4032.00 284.00" xmlns="http://www.w3.org/2000/svg" xmlns:xlink="http://www.w3.org/1999/xlink">
<g id="graph0" class="graph" transform="scale(1 1) rotate(0) translate(4 280)">
<title>dependencies</title>
<polygon fill="#ffffff" stroke="transparent" points="-4,4 -4,-280 4028,-280 4028,4 -4,4"/>
<text text-anchor="start" x="1991.0091" y="-42.4" font-family="sans-serif" font-weight="bold" font-size="14.00" fill="#000000">Legend</text>
<polygon fill="#ffffb3" stroke="transparent" points="1778,-10 1778,-30 1798,-30 1798,-10 1778,-10"/>
<text text-anchor="start" x="1801.629" y="-15.4" font-family="sans-serif" font-size="14.00" fill="#000000"> &#160;Declarations</text>
<polygon fill="#8dd3c7" stroke="transparent" points="1891,-10 1891,-30 1911,-30 1911,-10 1891,-10"/>
<text text-anchor="start" x="1914.7251" y="-15.4" font-family="sans-serif" font-size="14.00" fill="#000000"> &#160;Module</text>
<polygon fill="#80b1d3" stroke="transparent" points="1977,-10 1977,-30 1997,-30 1997,-10 1977,-10"/>
<text text-anchor="start" x="2000.7812" y="-15.4" font-family="sans-serif" font-size="14.00" fill="#000000"> &#160;Bootstrap</text>
<polygon fill="#fdb462" stroke="transparent" points="2074,-10 2074,-30 2094,-30 2094,-10 2074,-10"/>
<text text-anchor="start" x="2097.6732" y="-15.4" font-family="sans-serif" font-size="14.00" fill="#000000"> &#160;Providers</text>
<polygon fill="#fb8072" stroke="transparent" points="2170,-10 2170,-30 2190,-30 2190,-10 2170,-10"/>
<text text-anchor="start" x="2193.7258" y="-15.4" font-family="sans-serif" font-size="14.00" fill="#000000"> &#160;Exports</text>
<g id="clust1" class="cluster">
<title>cluster_MdKeyboardModule</title>
<polygon fill="none" stroke="#000000" stroke-dasharray="1,5" points="8,-70 8,-268 4016,-268 4016,-70 8,-70"/>
</g>
<g id="clust2" class="cluster">
<title>cluster_MdKeyboardModule_declarations</title>
<polygon fill="none" stroke="#000000" points="3127,-78 3127,-130 4008,-130 4008,-78 3127,-78"/>
</g>
<g id="clust8" class="cluster">
<title>cluster_MdKeyboardModule_imports</title>
<polygon fill="none" stroke="#000000" points="2353,-78 2353,-130 3119,-130 3119,-78 2353,-78"/>
</g>
<g id="clust9" class="cluster">
<title>cluster_MdKeyboardModule_exports</title>
<polygon fill="none" stroke="#000000" points="2275,-208 2275,-260 3201,-260 3201,-208 2275,-208"/>
</g>
<g id="clust11" class="cluster">
<title>cluster_MdKeyboardModule_providers</title>
<polygon fill="none" stroke="#000000" points="16,-78 16,-130 2345,-130 2345,-78 16,-78"/>
</g>
<!-- KebabCasePipe -->
<g id="node1" class="node">
<title>KebabCasePipe</title>
<polygon fill="#ffffb3" stroke="#000000" points="4000.1346,-122 3895.8654,-122 3895.8654,-86 4000.1346,-86 4000.1346,-122"/>
<text text-anchor="middle" x="3948" y="-99.8" font-family="Times,serif" font-size="14.00" fill="#000000">KebabCasePipe</text>
</g>
<!-- MdKeyboardModule -->
<g id="node6" class="node">
<title>MdKeyboardModule</title>
<polygon fill="#8dd3c7" stroke="#000000" points="2823.1909,-187 2820.1909,-191 2799.1909,-191 2796.1909,-187 2688.8091,-187 2688.8091,-151 2823.1909,-151 2823.1909,-187"/>
<text text-anchor="middle" x="2756" y="-164.8" font-family="Times,serif" font-size="14.00" fill="#000000">MdKeyboardModule</text>
</g>
<!-- KebabCasePipe&#45;&gt;MdKeyboardModule -->
<g id="edge1" class="edge">
<title>KebabCasePipe&#45;&gt;MdKeyboardModule</title>
<path fill="none" stroke="#000000" d="M3948,-122.0449C3948,-143.6623 3948,-177 3948,-177 3948,-177 2833.5024,-177 2833.5024,-177"/>
<polygon fill="#000000" stroke="#000000" points="2833.5024,-173.5001 2823.5024,-177 2833.5024,-180.5001 2833.5024,-173.5001"/>
</g>
<!-- MdKeyboardComponent -->
<g id="node2" class="node">
<title>MdKeyboardComponent</title>
<polygon fill="#ffffb3" stroke="#000000" points="3877.9734,-122 3722.0266,-122 3722.0266,-86 3877.9734,-86 3877.9734,-122"/>
<text text-anchor="middle" x="3800" y="-99.8" font-family="Times,serif" font-size="14.00" fill="#000000">MdKeyboardComponent</text>
</g>
<!-- MdKeyboardComponent&#45;&gt;MdKeyboardModule -->
<g id="edge2" class="edge">
<title>MdKeyboardComponent&#45;&gt;MdKeyboardModule</title>
<path fill="none" stroke="#000000" d="M3800,-122.1289C3800,-142.5724 3800,-173 3800,-173 3800,-173 2833.2947,-173 2833.2947,-173"/>
<polygon fill="#000000" stroke="#000000" points="2833.2947,-169.5001 2823.2947,-173 2833.2947,-176.5001 2833.2947,-169.5001"/>
</g>
<!-- MdKeyboardContainerComponent -->
<g id="node3" class="node">
<title>MdKeyboardContainerComponent</title>
<polygon fill="#ffffb3" stroke="#000000" points="3703.6811,-122 3492.3189,-122 3492.3189,-86 3703.6811,-86 3703.6811,-122"/>
<text text-anchor="middle" x="3598" y="-99.8" font-family="Times,serif" font-size="14.00" fill="#000000">MdKeyboardContainerComponent</text>
</g>
<!-- MdKeyboardContainerComponent&#45;&gt;MdKeyboardModule -->
<g id="edge3" class="edge">
<title>MdKeyboardContainerComponent&#45;&gt;MdKeyboardModule</title>
<path fill="none" stroke="#000000" d="M3598,-122.1061C3598,-141.3391 3598,-169 3598,-169 3598,-169 2833.1272,-169 2833.1272,-169"/>
<polygon fill="#000000" stroke="#000000" points="2833.1272,-165.5001 2823.1272,-169 2833.1272,-172.5001 2833.1272,-165.5001"/>
</g>
<!-- MdKeyboardKeyComponent -->
<g id="node4" class="node">
<title>MdKeyboardKeyComponent</title>
<polygon fill="#ffffb3" stroke="#000000" points="3474.7948,-122 3295.2052,-122 3295.2052,-86 3474.7948,-86 3474.7948,-122"/>
<text text-anchor="middle" x="3385" y="-99.8" font-family="Times,serif" font-size="14.00" fill="#000000">MdKeyboardKeyComponent</text>
</g>
<!-- MdKeyboardKeyComponent&#45;&gt;MdKeyboardModule -->
<g id="edge4" class="edge">
<title>MdKeyboardKeyComponent&#45;&gt;MdKeyboardModule</title>
<path fill="none" stroke="#000000" d="M3385,-122.2667C3385,-140.5552 3385,-166 3385,-166 3385,-166 2833.314,-166 2833.314,-166"/>
<polygon fill="#000000" stroke="#000000" points="2833.3141,-162.5001 2823.314,-166 2833.314,-169.5001 2833.3141,-162.5001"/>
</g>
<!-- MdKeyboardDirective -->
<g id="node5" class="node">
<title>MdKeyboardDirective</title>
<polygon fill="#ffffb3" stroke="#000000" points="3277.2241,-122 3134.7759,-122 3134.7759,-86 3277.2241,-86 3277.2241,-122"/>
<text text-anchor="middle" x="3206" y="-99.8" font-family="Times,serif" font-size="14.00" fill="#000000">MdKeyboardDirective</text>
</g>
<!-- MdKeyboardDirective&#45;&gt;MdKeyboardModule -->
<g id="edge5" class="edge">
<title>MdKeyboardDirective&#45;&gt;MdKeyboardModule</title>
<path fill="none" stroke="#000000" d="M3163.9721,-122.0336C3163.9721,-139.0597 3163.9721,-162 3163.9721,-162 3163.9721,-162 2833.3683,-162 2833.3683,-162"/>
<polygon fill="#000000" stroke="#000000" points="2833.3683,-158.5001 2823.3683,-162 2833.3683,-165.5001 2833.3683,-158.5001"/>
</g>
<!-- MdCommonModule  -->
<g id="node13" class="node">
<title>MdCommonModule </title>
<polygon fill="#fb8072" stroke="#000000" points="3193.1128,-252 3058.8872,-252 3058.8872,-216 3193.1128,-216 3193.1128,-252"/>
<text text-anchor="middle" x="3126" y="-229.8" font-family="Times,serif" font-size="14.00" fill="#000000">MdCommonModule </text>
</g>
<!-- MdKeyboardModule&#45;&gt;MdCommonModule  -->
<g id="edge12" class="edge">
<title>MdKeyboardModule&#45;&gt;MdCommonModule </title>
<path fill="none" stroke="#000000" stroke-dasharray="5,2" d="M2823.3732,-180C2919.6283,-180 3085.0062,-180 3085.0062,-180 3085.0062,-180 3085.0062,-205.7181 3085.0062,-205.7181"/>
<polygon fill="#000000" stroke="#000000" points="3081.5062,-205.718 3085.0062,-215.7181 3088.5062,-205.7181 3081.5062,-205.718"/>
</g>
<!-- MdKeyboardComponent  -->
<g id="node14" class="node">
<title>MdKeyboardComponent </title>
<polygon fill="#fb8072" stroke="#000000" points="3040.9741,-252 2881.0259,-252 2881.0259,-216 3040.9741,-216 3040.9741,-252"/>
<text text-anchor="middle" x="2961" y="-229.8" font-family="Times,serif" font-size="14.00" fill="#000000">MdKeyboardComponent </text>
</g>
<!-- MdKeyboardModule&#45;&gt;MdKeyboardComponent  -->
<g id="edge13" class="edge">
<title>MdKeyboardModule&#45;&gt;MdKeyboardComponent </title>
<path fill="none" stroke="#000000" stroke-dasharray="5,2" d="M2823.3557,-184C2856.0595,-184 2888.3845,-184 2888.3845,-184 2888.3845,-184 2888.3845,-205.9489 2888.3845,-205.9489"/>
<polygon fill="#000000" stroke="#000000" points="2884.8845,-205.9488 2888.3845,-215.9489 2891.8845,-205.9489 2884.8845,-205.9488"/>
</g>
<!-- MdKeyboardContainerComponent  -->
<g id="node15" class="node">
<title>MdKeyboardContainerComponent </title>
<polygon fill="#fb8072" stroke="#000000" points="2863.1812,-252 2648.8188,-252 2648.8188,-216 2863.1812,-216 2863.1812,-252"/>
<text text-anchor="middle" x="2756" y="-229.8" font-family="Times,serif" font-size="14.00" fill="#000000">MdKeyboardContainerComponent </text>
</g>
<!-- MdKeyboardModule&#45;&gt;MdKeyboardContainerComponent  -->
<g id="edge14" class="edge">
<title>MdKeyboardModule&#45;&gt;MdKeyboardContainerComponent </title>
<path fill="none" stroke="#000000" stroke-dasharray="5,2" d="M2756,-187.1061C2756,-187.1061 2756,-205.991 2756,-205.991"/>
<polygon fill="#000000" stroke="#000000" points="2752.5001,-205.9909 2756,-215.991 2759.5001,-205.991 2752.5001,-205.9909"/>
</g>
<!-- MdKeyboardKeyComponent  -->
<g id="node16" class="node">
<title>MdKeyboardKeyComponent </title>
<polygon fill="#fb8072" stroke="#000000" points="2630.2947,-252 2447.7053,-252 2447.7053,-216 2630.2947,-216 2630.2947,-252"/>
<text text-anchor="middle" x="2539" y="-229.8" font-family="Times,serif" font-size="14.00" fill="#000000">MdKeyboardKeyComponent </text>
</g>
<!-- MdKeyboardModule&#45;&gt;MdKeyboardKeyComponent  -->
<g id="edge15" class="edge">
<title>MdKeyboardModule&#45;&gt;MdKeyboardKeyComponent </title>
<path fill="none" stroke="#000000" stroke-dasharray="5,2" d="M2688.5957,-184C2655.2213,-184 2621.9767,-184 2621.9767,-184 2621.9767,-184 2621.9767,-205.9489 2621.9767,-205.9489"/>
<polygon fill="#000000" stroke="#000000" points="2618.4768,-205.9488 2621.9767,-215.9489 2625.4768,-205.9489 2618.4768,-205.9488"/>
</g>
<!-- MdKeyboardDirective  -->
<g id="node17" class="node">
<title>MdKeyboardDirective </title>
<polygon fill="#fb8072" stroke="#000000" points="2429.224,-252 2282.776,-252 2282.776,-216 2429.224,-216 2429.224,-252"/>
<text text-anchor="middle" x="2356" y="-229.8" font-family="Times,serif" font-size="14.00" fill="#000000">MdKeyboardDirective </text>
</g>
<!-- MdKeyboardModule&#45;&gt;MdKeyboardDirective  -->
<g id="edge16" class="edge">
<title>MdKeyboardModule&#45;&gt;MdKeyboardDirective </title>
<path fill="none" stroke="#000000" stroke-dasharray="5,2" d="M2688.5387,-180C2584.0778,-180 2395.0886,-180 2395.0886,-180 2395.0886,-180 2395.0886,-205.7181 2395.0886,-205.7181"/>
<polygon fill="#000000" stroke="#000000" points="2391.5886,-205.718 2395.0886,-215.7181 2398.5886,-205.7181 2391.5886,-205.718"/>
</g>
<!-- OverlayModule -->
<g id="node7" class="node">
<title>OverlayModule</title>
<polygon fill="#8dd3c7" stroke="#000000" points="3111.1374,-122 3108.1374,-126 3087.1374,-126 3084.1374,-122 3006.8626,-122 3006.8626,-86 3111.1374,-86 3111.1374,-122"/>
<text text-anchor="middle" x="3059" y="-99.8" font-family="Times,serif" font-size="14.00" fill="#000000">OverlayModule</text>
</g>
<!-- OverlayModule&#45;&gt;MdKeyboardModule -->
<g id="edge6" class="edge">
<title>OverlayModule&#45;&gt;MdKeyboardModule</title>
<path fill="none" stroke="#000000" d="M3023.7091,-122.0091C3023.7091,-138.0494 3023.7091,-159 3023.7091,-159 3023.7091,-159 2833.2088,-159 2833.2088,-159"/>
<polygon fill="#000000" stroke="#000000" points="2833.2088,-155.5001 2823.2088,-159 2833.2087,-162.5001 2833.2088,-155.5001"/>
</g>
<!-- PortalModule -->
<g id="node8" class="node">
<title>PortalModule</title>
<polygon fill="#8dd3c7" stroke="#000000" points="2988.4888,-122 2985.4888,-126 2964.4888,-126 2961.4888,-122 2895.5112,-122 2895.5112,-86 2988.4888,-86 2988.4888,-122"/>
<text text-anchor="middle" x="2942" y="-99.8" font-family="Times,serif" font-size="14.00" fill="#000000">PortalModule</text>
</g>
<!-- PortalModule&#45;&gt;MdKeyboardModule -->
<g id="edge7" class="edge">
<title>PortalModule&#45;&gt;MdKeyboardModule</title>
<path fill="none" stroke="#000000" d="M2942,-122.1243C2942,-136.7832 2942,-155 2942,-155 2942,-155 2833.1503,-155 2833.1503,-155"/>
<polygon fill="#000000" stroke="#000000" points="2833.1503,-151.5001 2823.1503,-155 2833.1502,-158.5001 2833.1503,-151.5001"/>
</g>
<!-- CommonModule -->
<g id="node9" class="node">
<title>CommonModule</title>
<polygon fill="#8dd3c7" stroke="#000000" points="2877.6681,-122 2874.6681,-126 2853.6681,-126 2850.6681,-122 2766.3319,-122 2766.3319,-86 2877.6681,-86 2877.6681,-122"/>
<text text-anchor="middle" x="2822" y="-99.8" font-family="Times,serif" font-size="14.00" fill="#000000">CommonModule</text>
</g>
<!-- CommonModule&#45;&gt;MdKeyboardModule -->
<g id="edge8" class="edge">
<title>CommonModule&#45;&gt;MdKeyboardModule</title>
<path fill="none" stroke="#000000" d="M2794.6308,-122.1061C2794.6308,-122.1061 2794.6308,-140.991 2794.6308,-140.991"/>
<polygon fill="#000000" stroke="#000000" points="2791.1309,-140.9909 2794.6308,-150.991 2798.1309,-140.991 2791.1309,-140.9909"/>
</g>
<!-- MdButtonModule -->
<g id="node10" class="node">
<title>MdButtonModule</title>
<polygon fill="#8dd3c7" stroke="#000000" points="2748.6123,-122 2745.6123,-126 2724.6123,-126 2721.6123,-122 2631.3877,-122 2631.3877,-86 2748.6123,-86 2748.6123,-122"/>
<text text-anchor="middle" x="2690" y="-99.8" font-family="Times,serif" font-size="14.00" fill="#000000">MdButtonModule</text>
</g>
<!-- MdButtonModule&#45;&gt;MdKeyboardModule -->
<g id="edge9" class="edge">
<title>MdButtonModule&#45;&gt;MdKeyboardModule</title>
<path fill="none" stroke="#000000" d="M2718.7304,-122.1061C2718.7304,-122.1061 2718.7304,-140.991 2718.7304,-140.991"/>
<polygon fill="#000000" stroke="#000000" points="2715.2304,-140.9909 2718.7304,-150.991 2722.2304,-140.991 2715.2304,-140.9909"/>
</g>
<!-- MdCommonModule -->
<g id="node11" class="node">
<title>MdCommonModule</title>
<polygon fill="#8dd3c7" stroke="#000000" points="2613.6122,-122 2610.6122,-126 2589.6122,-126 2586.6122,-122 2482.3878,-122 2482.3878,-86 2613.6122,-86 2613.6122,-122"/>
<text text-anchor="middle" x="2548" y="-99.8" font-family="Times,serif" font-size="14.00" fill="#000000">MdCommonModule</text>
</g>
<!-- MdCommonModule&#45;&gt;MdKeyboardModule -->
<g id="edge10" class="edge">
<title>MdCommonModule&#45;&gt;MdKeyboardModule</title>
<path fill="none" stroke="#000000" d="M2548,-122.1243C2548,-136.7832 2548,-155 2548,-155 2548,-155 2678.7556,-155 2678.7556,-155"/>
<polygon fill="#000000" stroke="#000000" points="2678.7556,-158.5001 2688.7556,-155 2678.7556,-151.5001 2678.7556,-158.5001"/>
</g>
<!-- MdIconModule -->
<g id="node12" class="node">
<title>MdIconModule</title>
<polygon fill="#8dd3c7" stroke="#000000" points="2464.8697,-122 2461.8697,-126 2440.8697,-126 2437.8697,-122 2361.1303,-122 2361.1303,-86 2464.8697,-86 2464.8697,-122"/>
<text text-anchor="middle" x="2413" y="-99.8" font-family="Times,serif" font-size="14.00" fill="#000000">MdIconModule</text>
</g>
<!-- MdIconModule&#45;&gt;MdKeyboardModule -->
<g id="edge11" class="edge">
<title>MdIconModule&#45;&gt;MdKeyboardModule</title>
<path fill="none" stroke="#000000" d="M2456.2688,-122.0091C2456.2688,-138.0494 2456.2688,-159 2456.2688,-159 2456.2688,-159 2678.7345,-159 2678.7345,-159"/>
<polygon fill="#000000" stroke="#000000" points="2678.7345,-162.5001 2688.7345,-159 2678.7344,-155.5001 2678.7345,-162.5001"/>
</g>
<!-- MdKeyboardService -->
<g id="node18" class="node">
<title>MdKeyboardService</title>
<ellipse fill="#fdb462" stroke="#000000" cx="2246" cy="-104" rx="91.4558" ry="18"/>
<text text-anchor="middle" x="2246" y="-99.8" font-family="Times,serif" font-size="14.00" fill="#000000">MdKeyboardService</text>
</g>
<!-- MdKeyboardService&#45;&gt;MdKeyboardModule -->
<g id="edge17" class="edge">
<title>MdKeyboardService&#45;&gt;MdKeyboardModule</title>
<path fill="none" stroke="#000000" d="M2310.183,-116.8721C2310.183,-133.9594 2310.183,-162 2310.183,-162 2310.183,-162 2678.774,-162 2678.774,-162"/>
<polygon fill="#000000" stroke="#000000" points="2678.774,-165.5001 2688.774,-162 2678.774,-158.5001 2678.774,-165.5001"/>
</g>
<!-- LIVE_ANNOUNCER_PROVIDER -->
<g id="node19" class="node">
<title>LIVE_ANNOUNCER_PROVIDER</title>
<ellipse fill="#fdb462" stroke="#000000" cx="1985" cy="-104" rx="151.6268" ry="18"/>
<text text-anchor="middle" x="1985" y="-99.8" font-family="Times,serif" font-size="14.00" fill="#000000">LIVE_ANNOUNCER_PROVIDER</text>
</g>
<!-- LIVE_ANNOUNCER_PROVIDER&#45;&gt;MdKeyboardModule -->
<g id="edge18" class="edge">
<title>LIVE_ANNOUNCER_PROVIDER&#45;&gt;MdKeyboardModule</title>
<path fill="none" stroke="#000000" d="M1985,-122.2667C1985,-140.5552 1985,-166 1985,-166 1985,-166 2678.5914,-166 2678.5914,-166"/>
<polygon fill="#000000" stroke="#000000" points="2678.5915,-169.5001 2688.5914,-166 2678.5914,-162.5001 2678.5915,-169.5001"/>
</g>
<!-- { provide: MD_KEYBOARD_DEADKEYS, useValue: keyboardDeadkeys } -->
<g id="node20" class="node">
<title>{ provide: MD_KEYBOARD_DEADKEYS, useValue: keyboardDeadkeys }</title>
<ellipse fill="#fdb462" stroke="#000000" cx="1505" cy="-104" rx="310.4214" ry="18"/>
<text text-anchor="middle" x="1505" y="-99.8" font-family="Times,serif" font-size="14.00" fill="#000000">{ provide: MD_KEYBOARD_DEADKEYS, useValue: keyboardDeadkeys }</text>
</g>
<!-- { provide: MD_KEYBOARD_DEADKEYS, useValue: keyboardDeadkeys }&#45;&gt;MdKeyboardModule -->
<g id="edge19" class="edge">
<title>{ provide: MD_KEYBOARD_DEADKEYS, useValue: keyboardDeadkeys }&#45;&gt;MdKeyboardModule</title>
<path fill="none" stroke="#000000" d="M1505,-122.1061C1505,-141.3391 1505,-169 1505,-169 1505,-169 2678.7408,-169 2678.7408,-169"/>
<polygon fill="#000000" stroke="#000000" points="2678.7408,-172.5001 2688.7408,-169 2678.7408,-165.5001 2678.7408,-172.5001"/>
</g>
<!-- { provide: MD_KEYBOARD_ICONS, useValue: keyboardIcons } -->
<g id="node21" class="node">
<title>{ provide: MD_KEYBOARD_ICONS, useValue: keyboardIcons }</title>
<ellipse fill="#fdb462" stroke="#000000" cx="906" cy="-104" rx="270.4889" ry="18"/>
<text text-anchor="middle" x="906" y="-99.8" font-family="Times,serif" font-size="14.00" fill="#000000">{ provide: MD_KEYBOARD_ICONS, useValue: keyboardIcons }</text>
</g>
<!-- { provide: MD_KEYBOARD_ICONS, useValue: keyboardIcons }&#45;&gt;MdKeyboardModule -->
<g id="edge20" class="edge">
<title>{ provide: MD_KEYBOARD_ICONS, useValue: keyboardIcons }&#45;&gt;MdKeyboardModule</title>
<path fill="none" stroke="#000000" d="M906,-122.1289C906,-142.5724 906,-173 906,-173 906,-173 2678.7901,-173 2678.7901,-173"/>
<polygon fill="#000000" stroke="#000000" points="2678.7901,-176.5001 2688.7901,-173 2678.79,-169.5001 2678.7901,-176.5001"/>
</g>
<!-- { provide: MD_KEYBOARD_LAYOUTS, useValue: keyboardLayouts } -->
<g id="node22" class="node">
<title>{ provide: MD_KEYBOARD_LAYOUTS, useValue: keyboardLayouts }</title>
<ellipse fill="#fdb462" stroke="#000000" cx="321" cy="-104" rx="296.5553" ry="18"/>
<text text-anchor="middle" x="321" y="-99.8" font-family="Times,serif" font-size="14.00" fill="#000000">{ provide: MD_KEYBOARD_LAYOUTS, useValue: keyboardLayouts }</text>
</g>
<!-- { provide: MD_KEYBOARD_LAYOUTS, useValue: keyboardLayouts }&#45;&gt;MdKeyboardModule -->
<g id="edge21" class="edge">
<title>{ provide: MD_KEYBOARD_LAYOUTS, useValue: keyboardLayouts }&#45;&gt;MdKeyboardModule</title>
<path fill="none" stroke="#000000" d="M321,-122.0449C321,-143.6623 321,-177 321,-177 321,-177 2678.6523,-177 2678.6523,-177"/>
<polygon fill="#000000" stroke="#000000" points="2678.6523,-180.5001 2688.6523,-177 2678.6523,-173.5001 2678.6523,-180.5001"/>
</g>
</g>
</svg>
